<svg version="1.1" id="Layer_1" xmlns="http://www.w3.org/2000/svg" xmlns:xlink="http://www.w3.org/1999/xlink" x="0px" y="0px"
	 width="100%" viewBox="0 0 218 56" enable-background="new 0 0 218 56" xml:space="preserve">
<path fill="#010303" opacity="1.000000" stroke="none" 
	d="
M1.000000,20.000000 
	C1.000000,13.698320 1.000000,7.396640 1.000000,1.000000 
	C23.687481,1.000000 46.375084,1.000000 69.805122,1.215922 
	C70.776772,2.288096 71.005989,3.144349 71.263962,4.370117 
	C71.792313,7.156336 72.291916,9.573039 72.664696,12.181417 
	C72.815384,13.053517 73.092903,13.733944 73.407944,14.772091 
	C73.551369,16.082901 73.657280,17.035992 73.619682,18.226555 
	C73.707680,19.302719 73.939194,20.141409 74.201424,21.417255 
	C74.535187,25.896267 74.838226,29.938124 75.141273,33.979980 
	C75.828163,33.905834 76.515060,33.831688 77.201958,33.757542 
	C76.879524,30.168945 76.732399,26.553431 76.186592,22.999138 
	C75.611916,19.256767 78.334846,16.266830 81.824303,17.424902 
	C83.289146,17.911051 84.465210,19.267324 85.807800,20.678188 
	C86.080139,25.343010 86.317245,29.557669 86.562218,33.912178 
	C90.952652,32.002476 91.267006,24.960476 87.489868,18.740128 
	C85.396500,14.571397 82.087807,13.628343 77.814133,14.024943 
	C76.966743,13.261130 76.403503,12.640304 75.798210,11.670847 
	C75.625526,10.632309 75.494888,9.942400 75.455048,8.879936 
	C75.030571,6.004920 74.515282,3.502460 74.000000,1.000000 
	C122.276443,1.000000 170.552887,1.000000 218.914673,1.000000 
	C218.914673,19.587498 218.914673,38.175449 218.914673,57.000000 
	C162.312653,57.000000 105.624985,57.000000 47.954803,56.999500 
	C47.535217,55.643127 48.098145,54.287254 48.913261,52.605011 
	C49.165455,45.363083 49.165455,38.447525 49.165455,31.126144 
	C56.495548,35.401703 63.714329,36.809799 70.860840,30.857609 
	C70.833038,30.058287 70.815247,29.738897 70.705093,29.051064 
	C70.119888,21.389898 67.952576,15.120754 60.549648,11.971876 
	C57.829571,10.814876 55.915691,11.199765 54.872849,14.710971 
	C56.762379,14.899287 58.511852,14.666103 59.829651,15.312696 
	C61.328136,16.047937 62.624088,17.443054 63.587433,18.841173 
	C63.816818,19.174084 62.373795,20.659332 61.665546,21.300797 
	C61.083538,20.816128 60.535988,20.645218 59.617462,20.420601 
	C58.501545,20.426386 57.756611,20.485882 56.676304,20.451374 
	C54.822487,21.251564 53.304035,22.145760 51.444447,23.161736 
	C50.556381,24.980532 50.009460,26.677546 49.135086,28.353773 
	C47.393284,24.271778 45.978931,20.210569 44.564583,16.149363 
	C43.986217,16.290998 43.407856,16.432636 42.829491,16.574272 
	C42.909996,18.091768 42.930305,19.615259 43.080753,21.125790 
	C44.073788,31.096117 45.094810,41.063656 45.927536,51.322838 
	C42.098995,48.404873 38.449638,45.196182 34.649723,41.855114 
	C34.618603,42.331470 34.112278,43.658237 34.563450,44.231705 
	C37.232151,47.623795 40.093014,50.867695 42.957169,54.101265 
	C43.853645,55.113361 44.960567,55.939056 45.971161,56.850075 
	C45.810886,56.876369 45.650795,56.903862 45.490284,56.928635 
	C45.327072,56.953819 45.163445,56.976326 45.000000,57.000000 
	C30.419428,57.000000 15.838857,57.000000 1.000000,57.000000 
	C1.000000,46.980583 1.000000,36.958950 1.284202,26.162842 
	C2.539987,26.647778 3.559967,27.873129 4.474544,29.172661 
	C7.922604,34.072037 14.308143,36.172386 19.797014,34.155472 
	C21.596193,33.494350 23.335230,32.785107 19.787754,31.342073 
	C17.589981,31.299091 15.768117,31.349537 13.554272,31.412355 
	C12.656246,31.554966 12.150201,31.685204 11.518702,31.488180 
	C10.264315,30.436033 9.135382,29.711151 7.870392,28.689499 
	C7.457149,27.613682 7.179962,26.834637 7.196802,25.774891 
	C10.806628,24.223440 14.501706,23.475079 17.277105,21.460018 
	C18.650415,20.462934 18.884144,17.055328 18.582161,14.884609 
	C18.377602,13.414198 16.342594,12.198433 15.126256,10.868777 
	C14.065794,12.391738 13.861851,13.106581 14.097749,13.618896 
	C16.163843,18.105976 15.017621,20.824408 10.289256,21.973343 
	C8.715507,22.355742 7.012463,22.206036 5.497834,21.919220 
	C7.159014,18.500200 8.690886,15.461544 10.321577,12.226871 
	C6.439967,11.841269 5.067315,14.579702 3.561600,17.332365 
	C2.990571,18.376287 1.870059,19.119646 1.000000,20.000000 
M203.884384,31.468367 
	C203.767014,31.323536 203.649643,31.178707 203.672394,30.668198 
	C203.566391,30.362265 203.357010,30.251465 202.439575,30.019022 
	C198.194016,26.296530 198.194016,26.296530 200.282425,24.532820 
	C203.210678,23.802912 206.138931,23.073004 209.450989,21.717957 
	C209.992111,19.242884 211.031326,16.723391 210.816605,14.315725 
	C210.736481,13.417195 207.729248,12.779707 205.362869,12.022106 
	C204.900375,12.016356 204.437881,12.010608 203.544678,11.533908 
	C202.138641,12.060390 200.732620,12.586872 198.756424,13.354132 
	C198.111771,14.368363 197.467133,15.382595 196.419418,16.744879 
	C196.179901,17.543112 195.940399,18.341345 195.514648,19.863008 
	C194.772598,27.247398 197.310226,32.270500 203.238052,34.056934 
	C207.348724,35.295742 211.644516,35.788765 214.749893,31.046652 
	C211.351486,31.312571 207.953079,31.578489 204.444901,31.758621 
	C204.444901,31.758621 204.319626,31.819563 203.884384,31.468367 
M34.156918,23.798712 
	C34.702942,27.364998 33.850899,31.392605 36.710930,34.195339 
	C37.339943,34.070812 37.968956,33.946289 38.597969,33.821762 
	C38.139965,30.267979 37.681957,26.714193 37.413147,22.605810 
	C37.173119,22.094753 36.933090,21.583696 36.674156,20.258091 
	C36.556934,18.909281 36.439713,17.560472 36.469582,15.553204 
	C34.073109,14.280025 33.792446,14.262742 33.670048,16.250423 
	C33.533485,18.468073 33.974876,20.721312 34.156918,23.798712 
M130.856674,30.352306 
	C130.837646,30.035858 130.818634,29.719410 130.608337,28.669825 
	C130.109085,21.377737 127.937485,15.108625 120.527924,11.973463 
	C117.807686,10.822461 115.888496,11.195054 114.898682,14.729817 
	C116.800400,14.913441 118.418884,14.856367 119.915474,15.255892 
	C123.763680,16.283199 124.508636,19.044348 121.672874,20.991470 
	C121.105659,20.815889 120.538437,20.640308 119.237907,20.366888 
	C118.502007,20.421047 117.766106,20.475206 116.351624,20.333296 
	C114.828049,21.224903 113.304466,22.116510 111.127373,23.242992 
	C110.701401,25.521471 110.275429,27.799950 110.066475,30.744835 
	C115.908562,36.114094 124.935013,36.356117 130.856674,30.352306 
M147.266785,15.226551 
	C142.368225,15.226551 137.469650,15.226551 132.331467,15.226551 
	C132.217316,22.728365 133.064499,28.982645 137.644226,34.283489 
	C137.994614,30.931738 137.081039,27.854134 136.697357,24.711826 
	C136.438583,22.592466 136.119400,19.386248 137.274200,18.448975 
	C138.941483,17.095747 142.124512,16.573168 144.286880,17.135086 
	C146.861755,17.804192 147.515381,17.154123 148.392258,14.919748 
	C148.739227,15.275333 149.086197,15.630919 149.584412,16.544941 
	C149.684860,16.709564 149.785324,16.874187 149.786972,17.498732 
	C149.786972,17.498732 149.880936,17.959665 149.722412,18.864908 
	C149.835571,21.015375 149.800476,23.185905 150.088257,25.312746 
	C151.183212,33.404892 154.929626,35.948051 163.112030,34.462132 
	C166.556534,33.836613 169.742905,33.109150 169.810699,28.677679 
	C169.874191,24.528252 167.066147,21.337307 162.626099,20.568802 
	C160.512665,20.202997 158.378830,19.681398 156.258118,19.698999 
	C153.455093,19.722263 152.421539,18.333052 152.337265,14.958798 
	C152.120163,12.488523 152.014877,10.000241 151.621674,7.558324 
	C151.494354,6.767697 150.612015,6.098648 150.075027,5.373990 
	C149.392136,6.145881 148.218643,6.859744 148.119171,7.700643 
	C147.831451,10.133218 147.975723,12.616891 147.266785,15.226551 
M178.463318,29.949589 
	C177.954300,29.698542 177.445297,29.447493 176.675262,28.542051 
	C176.178558,27.537312 175.681854,26.532574 175.134903,25.426203 
	C183.503906,24.790758 187.788315,22.035910 187.807648,17.451059 
	C187.822922,13.828463 186.465240,12.300056 182.954971,11.988145 
	C185.073441,19.610117 182.371429,23.210167 174.654694,22.303419 
	C174.983856,20.382833 175.308975,18.485870 176.244461,15.868585 
	C175.720551,15.354860 175.196640,14.841136 173.979828,14.679091 
	C173.432938,15.820941 172.886032,16.962790 172.035400,18.420721 
	C171.956116,18.974913 171.876846,19.529104 171.595871,20.938761 
	C171.303955,27.515018 173.703461,32.020325 179.139542,33.902885 
	C183.496536,35.411755 187.960587,35.744724 192.049255,31.737713 
	C187.281052,31.237856 183.080368,30.797491 178.463318,29.949589 
M29.722378,12.995736 
	C29.340956,11.452214 28.959534,9.908691 28.578112,8.365170 
	C27.975452,8.445595 27.372793,8.526021 26.770134,8.606446 
	C26.320776,17.054585 25.976858,25.500612 28.031855,33.935780 
	C31.057499,27.389410 29.604391,20.571552 29.722378,12.995736 
M176.422546,12.423463 
	C176.723129,13.154778 177.023712,13.886093 177.324295,14.617399 
	C178.099335,13.930144 178.874374,13.242889 179.649414,12.555640 
	C178.780533,12.327283 177.911667,12.098925 176.422546,12.423463 
M23.936836,31.488249 
	C23.936836,31.488249 23.871166,31.487686 23.936836,31.488249 
z"/>
<path fill="#187D85" opacity="1.000000" stroke="none" 
	d="
M1.000000,20.428463 
	C1.870059,19.119646 2.990571,18.376287 3.561600,17.332365 
	C5.067315,14.579702 6.439967,11.841269 10.321577,12.226871 
	C8.690886,15.461544 7.159014,18.500200 5.427761,22.079292 
	C5.299454,23.063890 5.370528,23.508051 5.566845,24.274899 
	C6.131336,25.094761 6.570584,25.591940 6.991659,26.053307 
	C6.973485,26.017492 6.902775,26.055590 6.902776,26.055590 
	C7.179962,26.834637 7.457149,27.613682 7.962500,28.957771 
	C9.341827,30.287024 10.492991,31.051233 11.644156,31.815443 
	C12.150201,31.685204 12.656246,31.554966 13.787029,31.649719 
	C16.329065,31.728306 18.246363,31.581903 20.163660,31.435501 
	C23.335230,32.785107 21.596193,33.494350 19.797014,34.155472 
	C14.308143,36.172386 7.922604,34.072037 4.474544,29.172661 
	C3.559967,27.873129 2.539987,26.647778 1.284202,25.694183 
	C1.000000,24.285643 1.000000,22.571283 1.000000,20.428463 
z"/>
<path fill="#1E98A2" opacity="1.000000" stroke="none" 
	d="
M48.661068,52.931381 
	C48.098145,54.287254 47.535217,55.643127 47.486145,56.999500 
	C47.250000,57.000000 46.500000,57.000000 45.375000,57.000000 
	C45.163445,56.976326 45.327072,56.953819 45.490284,56.928635 
	C45.650795,56.903862 45.810886,56.876369 45.971161,56.850075 
	C44.960567,55.939056 43.853645,55.113361 42.957169,54.101265 
	C40.093014,50.867695 37.232151,47.623795 34.563450,44.231705 
	C34.112278,43.658237 34.618603,42.331470 34.649723,41.855114 
	C38.449638,45.196182 42.098995,48.404873 46.193420,51.385708 
	C47.312679,51.749027 47.986874,52.340202 48.661068,52.931381 
z"/>
<path fill="#115A60" opacity="1.000000" stroke="none" 
	d="
M71.235207,4.000602 
	C71.005989,3.144349 70.776772,2.288096 70.273781,1.215922 
	C71.066673,1.000000 72.133339,1.000000 73.600006,1.000000 
	C74.515282,3.502460 75.030571,6.004920 75.218651,8.678854 
	C73.672699,7.233752 72.453957,5.617177 71.235207,4.000602 
z"/>
<path fill="#177980" opacity="1.000000" stroke="none" 
	d="
M48.913261,52.605011 
	C47.986874,52.340202 47.312679,51.749027 46.372597,51.094978 
	C45.094810,41.063656 44.073788,31.096117 43.080753,21.125790 
	C42.930305,19.615259 42.909996,18.091768 42.829491,16.574272 
	C43.407856,16.432636 43.986217,16.290998 44.564583,16.149363 
	C45.978931,20.210569 47.393284,24.271778 49.369446,28.491722 
	C50.628448,28.764771 51.325634,28.879086 52.380249,29.131845 
	C56.345432,30.057016 59.953186,30.843740 63.770081,31.704536 
	C64.367149,31.660845 64.755074,31.543081 65.142998,31.425318 
	C64.798836,31.242886 64.454666,31.060452 64.391739,30.683823 
	C65.803909,30.338840 66.934837,30.188057 68.023308,30.029089 
	C67.980850,30.020905 67.915482,29.964296 68.152451,30.194576 
	C69.216560,30.729084 70.043709,31.033312 70.870857,31.337542 
	C63.714329,36.809799 56.495548,35.401703 49.165455,31.126144 
	C49.165455,38.447525 49.165455,45.363083 48.913261,52.605011 
z"/>
<path fill="#177980" opacity="1.000000" stroke="none" 
	d="
M172.339142,18.104639 
	C172.886032,16.962790 173.432938,15.820941 174.550278,15.075573 
	C175.291855,15.844339 175.462982,16.216623 175.634109,16.588905 
	C175.308975,18.485870 174.983856,20.382833 174.654694,22.303419 
	C182.371429,23.210167 185.073441,19.610117 182.954971,11.988145 
	C186.465240,12.300056 187.822922,13.828463 187.807648,17.451059 
	C187.788315,22.035910 183.503906,24.790758 175.134903,25.426203 
	C175.681854,26.532574 176.178558,27.537312 176.892181,29.067657 
	C177.699280,29.847887 178.289490,30.102509 178.879684,30.357128 
	C183.080368,30.797491 187.281052,31.237856 192.049255,31.737713 
	C187.960587,35.744724 183.496536,35.411755 179.139542,33.902885 
	C173.703461,32.020325 171.303955,27.515018 171.830688,20.342037 
	C172.156723,19.198421 172.247940,18.651529 172.339142,18.104639 
z"/>
<path fill="#1B8A93" opacity="1.000000" stroke="none" 
	d="
M149.885773,17.038813 
	C149.785324,16.874187 149.684860,16.709564 149.977036,16.263500 
	C150.992340,15.935858 151.615036,15.889654 152.237717,15.843451 
	C152.421539,18.333052 153.455093,19.722263 156.258118,19.698999 
	C158.378830,19.681398 160.512665,20.202997 162.626099,20.568802 
	C167.066147,21.337307 169.874191,24.528252 169.810699,28.677679 
	C169.742905,33.109150 166.556534,33.836613 163.112030,34.462132 
	C154.929626,35.948051 151.183212,33.404892 150.088257,25.312746 
	C149.800476,23.185905 149.835571,21.015375 149.958405,18.335018 
	C150.249222,17.702715 150.376007,17.547199 150.346405,17.507078 
	C150.217712,17.332651 150.043457,17.191839 149.885773,17.038813 
M155.944748,22.191252 
	C155.366516,22.468948 154.546082,22.590416 154.249664,23.049911 
	C152.440872,25.853861 153.473022,30.428450 156.559937,30.829378 
	C159.671127,31.233461 164.494141,30.980074 165.910202,29.057657 
	C168.188293,25.964901 164.281448,24.080084 161.537460,22.960428 
	C160.074310,22.363405 158.348770,22.409452 155.944748,22.191252 
M159.991516,31.916277 
	C160.089233,32.194695 160.186951,32.473110 160.284668,32.751522 
	C160.374298,32.466667 160.463943,32.181812 159.991516,31.916277 
z"/>
<path fill="#197E86" opacity="1.000000" stroke="none" 
	d="
M109.849457,30.078426 
	C110.275429,27.799950 110.701401,25.521471 111.795914,23.061001 
	C113.986374,22.095793 115.508293,21.312580 117.030205,20.529366 
	C117.766106,20.475206 118.502007,20.421047 119.681984,20.559258 
	C120.671684,21.046793 121.217316,21.341963 121.762939,21.637131 
	C124.508636,19.044348 123.763680,16.283199 119.915474,15.255892 
	C118.418884,14.856367 116.800400,14.913441 114.898682,14.729817 
	C115.888496,11.195054 117.807686,10.822461 120.527924,11.973463 
	C127.937485,15.108625 130.109085,21.377737 130.360443,29.177509 
	C129.380280,29.777540 128.647995,29.869888 127.945755,29.999359 
	C127.975800,30.036486 128.071060,30.029594 128.070999,29.672821 
	C126.674660,27.704618 125.495880,25.810644 123.840240,24.536154 
	C119.354980,21.083471 113.462502,23.400564 111.773170,29.124640 
	C110.949028,29.534082 110.399239,29.806255 109.849457,30.078426 
z"/>
<path fill="#187D85" opacity="1.000000" stroke="none" 
	d="
M52.022823,28.993399 
	C51.325634,28.879086 50.628448,28.764771 49.696899,28.512508 
	C50.009460,26.677546 50.556381,24.980532 51.783958,23.084553 
	C53.980293,22.105516 55.495983,21.325447 57.011673,20.545376 
	C57.756611,20.485882 58.501545,20.426386 59.696060,20.556545 
	C60.663757,21.035652 61.181885,21.325102 61.700008,21.614553 
	C62.373795,20.659332 63.816818,19.174084 63.587433,18.841173 
	C62.624088,17.443054 61.328136,16.047937 59.829651,15.312696 
	C58.511852,14.666103 56.762379,14.899287 54.872849,14.710971 
	C55.915691,11.199765 57.829571,10.814876 60.549648,11.971876 
	C67.952576,15.120754 70.119888,21.389898 70.360748,29.187958 
	C69.377678,29.783630 68.646576,29.873962 67.915482,29.964294 
	C67.915482,29.964296 67.980850,30.020905 68.025223,29.671894 
	C66.804329,27.813686 65.736053,26.062992 64.237129,24.840231 
	C59.602871,21.059814 53.537457,23.194567 52.022823,28.993399 
z"/>
<path fill="#166F76" opacity="1.000000" stroke="none" 
	d="
M147.898422,15.021214 
	C147.515381,17.154123 146.861755,17.804192 144.286880,17.135086 
	C142.124512,16.573168 138.941483,17.095747 137.274200,18.448975 
	C136.119400,19.386248 136.438583,22.592466 136.697357,24.711826 
	C137.081039,27.854134 137.994614,30.931738 137.644226,34.283489 
	C133.064499,28.982645 132.217316,22.728365 132.331467,15.226551 
	C137.469650,15.226551 142.368225,15.226551 147.617920,15.118603 
	C147.969055,15.010655 147.898422,15.021214 147.898422,15.021214 
z"/>
<path fill="#177980" opacity="1.000000" stroke="none" 
	d="
M204.554672,31.844408 
	C207.953079,31.578489 211.351486,31.312571 214.749893,31.046652 
	C211.644516,35.788765 207.348724,35.295742 203.238052,34.056934 
	C197.310226,32.270500 194.772598,27.247398 195.802765,19.184008 
	C196.334747,17.802279 196.578613,17.099552 196.822479,16.396826 
	C197.467133,15.382595 198.111771,14.368363 199.347412,13.232313 
	C200.917343,13.328303 201.896286,13.546110 202.592224,13.958186 
	C199.077377,16.874628 196.051025,19.644558 200.012115,24.038157 
	C198.194016,26.296530 198.194016,26.296530 202.813370,30.300732 
	C203.288315,30.743534 203.403351,30.894012 203.532272,31.033876 
	C203.649643,31.178707 203.767014,31.323536 204.128906,31.659304 
	C204.373428,31.850241 204.554672,31.844408 204.554672,31.844408 
z"/>
<path fill="#197E86" opacity="1.000000" stroke="none" 
	d="
M29.734766,13.433655 
	C29.604391,20.571552 31.057499,27.389410 28.031855,33.935780 
	C25.976858,25.500612 26.320776,17.054585 26.770134,8.606446 
	C27.372793,8.526021 27.975452,8.445595 28.578112,8.365170 
	C28.959534,9.908691 29.340956,11.452214 29.734766,13.433655 
z"/>
<path fill="#031011" opacity="1.000000" stroke="none" 
	d="
M200.147278,24.285488 
	C196.051025,19.644558 199.077377,16.874628 202.809128,13.803831 
	C203.531128,12.971757 203.753250,12.488306 203.975388,12.004856 
	C204.437881,12.010608 204.900375,12.016356 205.731812,12.356575 
	C209.054611,15.834560 209.851440,18.884256 204.861938,21.528347 
	C206.831253,21.909893 207.949219,22.126493 209.067184,22.343094 
	C206.138931,23.073004 203.210678,23.802912 200.147278,24.285488 
z"/>
<path fill="#1E9AA4" opacity="1.000000" stroke="none" 
	d="
M71.263962,4.370117 
	C72.453957,5.617177 73.672699,7.233752 75.127853,9.051411 
	C75.494888,9.942400 75.625526,10.632309 75.666321,11.931826 
	C75.872017,13.570513 76.167564,14.599592 76.463120,15.628674 
	C77.008171,15.141760 77.553223,14.654845 78.098274,14.167931 
	C82.087807,13.628343 85.396500,14.571397 87.255463,18.880127 
	C86.685707,19.632864 86.229134,19.930445 85.772560,20.228025 
	C84.465210,19.267324 83.289146,17.911051 81.824303,17.424902 
	C78.334846,16.266830 75.611916,19.256767 76.186592,22.999138 
	C76.732399,26.553431 76.879524,30.168945 77.201958,33.757542 
	C76.515060,33.831688 75.828163,33.905834 75.141273,33.979980 
	C74.838226,29.938124 74.535187,25.896267 74.333481,21.178600 
	C74.210953,19.664890 73.987076,18.826986 73.763199,17.989082 
	C73.657280,17.035992 73.551369,16.082901 73.469963,14.450588 
	C73.260155,13.177491 73.025833,12.583618 72.791519,11.989744 
	C72.291916,9.573039 71.792313,7.156336 71.263962,4.370117 
z"/>
<path fill="#156C73" opacity="1.000000" stroke="none" 
	d="
M5.441603,23.952213 
	C5.370528,23.508051 5.299454,23.063890 5.298453,22.459656 
	C7.012463,22.206036 8.715507,22.355742 10.289256,21.973343 
	C15.017621,20.824408 16.163843,18.105976 14.097749,13.618896 
	C13.861851,13.106581 14.065794,12.391738 15.126256,10.868777 
	C16.342594,12.198433 18.377602,13.414198 18.582161,14.884609 
	C18.884144,17.055328 18.650415,20.462934 17.277105,21.460018 
	C14.501706,23.475079 10.806628,24.223440 7.196802,25.774891 
	C6.902775,26.055590 6.973485,26.017492 7.015942,25.684185 
	C6.519466,24.884655 5.980534,24.418434 5.441603,23.952213 
z"/>
<path fill="#17757D" opacity="1.000000" stroke="none" 
	d="
M109.957962,30.411633 
	C110.399239,29.806255 110.949028,29.534082 112.132515,29.253088 
	C116.366631,30.033796 119.967049,30.823324 123.769272,31.686287 
	C124.343399,31.646114 124.715729,31.532507 125.088058,31.418898 
	C124.753807,31.248117 124.419548,31.077339 124.360207,30.696381 
	C125.780434,30.333998 126.925743,30.181795 128.071060,30.029594 
	C128.071060,30.029594 127.975800,30.036486 128.194092,30.215265 
	C129.236023,30.697027 130.059677,31.000011 130.883316,31.302994 
	C124.935013,36.356117 115.908562,36.114094 109.957962,30.411633 
z"/>
<path fill="#14676E" opacity="1.000000" stroke="none" 
	d="
M85.807800,20.678188 
	C86.229134,19.930445 86.685707,19.632864 87.376678,19.195282 
	C91.267006,24.960476 90.952652,32.002476 86.562218,33.912178 
	C86.317245,29.557669 86.080139,25.343010 85.807800,20.678188 
z"/>
<path fill="#1C9099" opacity="1.000000" stroke="none" 
	d="
M37.223953,23.160408 
	C37.681957,26.714193 38.139965,30.267979 38.597969,33.821762 
	C37.968956,33.946289 37.339943,34.070812 36.710930,34.195339 
	C33.850899,31.392605 34.702942,27.364998 34.302074,23.062996 
	C35.072315,20.288740 35.697399,18.250200 36.322487,16.211662 
	C36.439713,17.560472 36.556934,18.909281 36.588032,20.844074 
	C36.742588,22.006840 36.983269,22.583624 37.223953,23.160408 
z"/>
<path fill="#17757D" opacity="1.000000" stroke="none" 
	d="
M209.259094,22.030525 
	C207.949219,22.126493 206.831253,21.909893 204.861938,21.528347 
	C209.851440,18.884256 209.054611,15.834560 206.078705,12.357119 
	C207.729248,12.779707 210.736481,13.417195 210.816605,14.315725 
	C211.031326,16.723391 209.992111,19.242884 209.259094,22.030525 
z"/>
<path fill="#136066" opacity="1.000000" stroke="none" 
	d="
M152.287491,15.401125 
	C151.615036,15.889654 150.992340,15.935858 149.901413,15.984283 
	C149.086197,15.630919 148.739227,15.275333 148.145340,14.970482 
	C147.898422,15.021214 147.969055,15.010655 147.959747,15.045580 
	C147.975723,12.616891 147.831451,10.133218 148.119171,7.700643 
	C148.218643,6.859744 149.392136,6.145881 150.075027,5.373988 
	C150.612015,6.098648 151.494354,6.767697 151.621674,7.558324 
	C152.014877,10.000241 152.120163,12.488523 152.287491,15.401125 
z"/>
<path fill="#156C73" opacity="1.000000" stroke="none" 
	d="
M36.396034,15.882433 
	C35.697399,18.250200 35.072315,20.288740 34.305969,22.643169 
	C33.974876,20.721312 33.533485,18.468073 33.670048,16.250423 
	C33.792446,14.262742 34.073109,14.280025 36.396034,15.882433 
z"/>
<path fill="#156C73" opacity="1.000000" stroke="none" 
	d="
M19.787754,31.342072 
	C18.246363,31.581903 16.329065,31.728306 14.179009,31.637346 
	C15.768117,31.349537 17.589981,31.299091 19.787754,31.342072 
z"/>
<path fill="#177980" opacity="1.000000" stroke="none" 
	d="
M56.676304,20.451372 
	C55.495983,21.325447 53.980293,22.105516 52.125099,22.962772 
	C53.304035,22.145760 54.822487,21.251564 56.676304,20.451372 
z"/>
<path fill="#17757D" opacity="1.000000" stroke="none" 
	d="
M116.690918,20.431332 
	C115.508293,21.312580 113.986374,22.095793 112.122681,22.943563 
	C113.304466,22.116510 114.828049,21.224903 116.690918,20.431332 
z"/>
<path fill="#177980" opacity="1.000000" stroke="none" 
	d="
M176.732666,12.147015 
	C177.911667,12.098925 178.780533,12.327283 179.649414,12.555637 
	C178.874374,13.242889 178.099335,13.930144 177.324280,14.617403 
	C177.023712,13.886093 176.723129,13.154778 176.732666,12.147015 
z"/>
<path fill="#166F76" opacity="1.000000" stroke="none" 
	d="
M203.760040,11.769382 
	C203.753250,12.488306 203.531128,12.971757 203.092102,13.609562 
	C201.896286,13.546110 200.917343,13.328303 199.632507,13.111925 
	C200.732620,12.586872 202.138641,12.060390 203.760040,11.769382 
z"/>
<path fill="#115A60" opacity="1.000000" stroke="none" 
	d="
M77.814133,14.024944 
	C77.553223,14.654845 77.008171,15.141760 76.463120,15.628674 
	C76.167564,14.599592 75.872017,13.570513 75.708359,12.280456 
	C76.403503,12.640304 76.966743,13.261130 77.814133,14.024944 
z"/>
<path fill="#156C73" opacity="1.000000" stroke="none" 
	d="
M11.518702,31.488180 
	C10.492991,31.051233 9.341827,30.287024 8.098556,29.254541 
	C9.135382,29.711151 10.264315,30.436033 11.518702,31.488180 
z"/>
<path fill="#115A60" opacity="1.000000" stroke="none" 
	d="
M73.619682,18.226555 
	C73.987076,18.826986 74.210953,19.664890 74.302765,20.741446 
	C73.939194,20.141409 73.707680,19.302719 73.619682,18.226555 
z"/>
<path fill="#177980" opacity="1.000000" stroke="none" 
	d="
M61.665546,21.300797 
	C61.181885,21.325102 60.663757,21.035652 60.067039,20.610254 
	C60.535988,20.645218 61.083538,20.816128 61.665546,21.300797 
z"/>
<path fill="#17757D" opacity="1.000000" stroke="none" 
	d="
M121.717911,21.314301 
	C121.217316,21.341963 120.671684,21.046793 120.048645,20.608177 
	C120.538437,20.640308 121.105659,20.815889 121.717911,21.314301 
z"/>
<path fill="#166F76" opacity="1.000000" stroke="none" 
	d="
M172.187271,18.262680 
	C172.247940,18.651529 172.156723,19.198421 171.931549,19.914305 
	C171.876846,19.529104 171.956116,18.974913 172.187271,18.262680 
z"/>
<path fill="#156C73" opacity="1.000000" stroke="none" 
	d="
M37.318550,22.883110 
	C36.983269,22.583624 36.742588,22.006840 36.597485,21.251347 
	C36.933090,21.583696 37.173119,22.094753 37.318550,22.883110 
z"/>
<path fill="#115A60" opacity="1.000000" stroke="none" 
	d="
M72.664688,12.181417 
	C73.025833,12.583618 73.260155,13.177491 73.432449,14.092869 
	C73.092903,13.733944 72.815384,13.053517 72.664688,12.181417 
z"/>
<path fill="#166F76" opacity="1.000000" stroke="none" 
	d="
M196.620941,16.570850 
	C196.578613,17.099552 196.334747,17.802279 195.895889,18.822292 
	C195.940399,18.341345 196.179901,17.543112 196.620941,16.570850 
z"/>
<path fill="#166F76" opacity="1.000000" stroke="none" 
	d="
M178.671509,30.153358 
	C178.289490,30.102509 177.699280,29.847887 177.022675,29.394855 
	C177.445297,29.447493 177.954300,29.698542 178.671509,30.153358 
z"/>
<path fill="#020A0B" opacity="1.000000" stroke="none" 
	d="
M130.869995,30.827652 
	C130.059677,31.000011 129.236023,30.697027 128.164047,30.178139 
	C128.647995,29.869888 129.380280,29.777540 130.456085,29.544079 
	C130.818634,29.719410 130.837646,30.035858 130.869995,30.827652 
z"/>
<path fill="#020B0C" opacity="1.000000" stroke="none" 
	d="
M68.152451,30.194576 
	C68.646576,29.873962 69.377678,29.783630 70.453117,29.556404 
	C70.815247,29.738897 70.833038,30.058287 70.860840,30.857609 
	C70.043709,31.033312 69.216560,30.729084 68.152451,30.194576 
z"/>
<path fill="#156C73" opacity="1.000000" stroke="none" 
	d="
M23.904001,31.487968 
	C23.871166,31.487686 23.936836,31.488249 23.904001,31.487968 
z"/>
<path fill="#136066" opacity="1.000000" stroke="none" 
	d="
M149.836365,17.268772 
	C150.043457,17.191839 150.217712,17.332651 150.346405,17.507078 
	C150.376007,17.547199 150.249222,17.702715 150.037674,17.882397 
	C149.880936,17.959665 149.786972,17.498732 149.836365,17.268772 
z"/>
<path fill="#166F76" opacity="1.000000" stroke="none" 
	d="
M203.602325,30.851036 
	C203.403351,30.894012 203.288315,30.743534 203.115692,30.459120 
	C203.357010,30.251465 203.566391,30.362265 203.602325,30.851036 
z"/>
<path fill="#166F76" opacity="1.000000" stroke="none" 
	d="
M204.499786,31.801514 
	C204.554672,31.844408 204.373428,31.850241 204.346527,31.834902 
	C204.319626,31.819563 204.444901,31.758621 204.499786,31.801514 
z"/>
<path fill="#177980" opacity="1.000000" stroke="none" 
	d="
M174.896729,14.899734 
	C175.196640,14.841136 175.720551,15.354860 175.939285,16.228745 
	C175.462982,16.216623 175.291855,15.844339 174.896729,14.899734 
z"/>
<path fill="#010303" opacity="1.000000" stroke="none" 
	d="
M5.566845,24.274899 
	C5.980534,24.418434 6.519466,24.884655 7.034115,25.719997 
	C6.570584,25.591940 6.131336,25.094761 5.566845,24.274899 
z"/>
<path fill="#020B0C" opacity="1.000000" stroke="none" 
	d="
M52.380249,29.131845 
	C53.537457,23.194567 59.602871,21.059814 64.237129,24.840231 
	C65.736053,26.062992 66.804329,27.813686 68.067680,29.680079 
	C66.934837,30.188057 65.803909,30.338840 64.252998,30.870941 
	C63.833012,31.252260 63.560940,31.630466 63.560940,31.630466 
	C59.953186,30.843740 56.345432,30.057016 52.380249,29.131845 
z"/>
<path fill="#020B0C" opacity="1.000000" stroke="none" 
	d="
M63.971756,31.065140 
	C64.454666,31.060452 64.798836,31.242886 65.142998,31.425318 
	C64.755074,31.543081 64.367149,31.660845 63.770081,31.704536 
	C63.560940,31.630466 63.833012,31.252260 63.971756,31.065140 
z"/>
<path fill="#031011" opacity="1.000000" stroke="none" 
	d="
M156.343201,22.178253 
	C158.348770,22.409452 160.074310,22.363405 161.537460,22.960428 
	C164.281448,24.080084 168.188293,25.964901 165.910202,29.057657 
	C164.494141,30.980074 159.671127,31.233461 156.559937,30.829378 
	C153.473022,30.428450 152.440872,25.853861 154.249664,23.049911 
	C154.546082,22.590416 155.366516,22.468948 156.343201,22.178253 
z"/>
<path fill="#031011" opacity="1.000000" stroke="none" 
	d="
M160.272552,31.906618 
	C160.463943,32.181812 160.374298,32.466667 160.284668,32.751526 
	C160.186951,32.473110 160.089233,32.194695 160.272552,31.906618 
z"/>
<path fill="#020A0B" opacity="1.000000" stroke="none" 
	d="
M123.567467,31.612852 
	C119.967049,30.823324 116.366631,30.033796 112.406868,29.115818 
	C113.462502,23.400564 119.354980,21.083471 123.840240,24.536154 
	C125.495880,25.810644 126.674660,27.704618 128.070999,29.672821 
	C126.925743,30.181795 125.780434,30.333998 124.228897,30.871593 
	C123.822678,31.256989 123.567467,31.612852 123.567467,31.612852 
z"/>
<path fill="#020A0B" opacity="1.000000" stroke="none" 
	d="
M123.953987,31.081776 
	C124.419548,31.077339 124.753807,31.248117 125.088058,31.418898 
	C124.715729,31.532507 124.343399,31.646114 123.769272,31.686287 
	C123.567467,31.612852 123.822678,31.256989 123.953987,31.081776 
z"/>
</svg>